<?xml version="1.0" encoding="UTF-8"?>
<svg id="Layer_1" data-name="Layer 1" xmlns="http://www.w3.org/2000/svg" xmlns:xlink="http://www.w3.org/1999/xlink" version="1.1" viewBox="0 0 930 472">
  <defs>
    <style>
      .cls-1 {
        fill: url(#linear-gradient);
      }

      .cls-1, .cls-2, .cls-3 {
        stroke-width: 0px;
      }

      .cls-2 {
        fill: #ff2a95;
      }

      .cls-3 {
        fill: url(#linear-gradient-2);
      }
    </style>
    <linearGradient id="linear-gradient" x1="284" y1="369.1" x2="659.4" y2="369.1" gradientTransform="translate(0 518) scale(1 -1)" gradientUnits="userSpaceOnUse">
      <stop offset="0" stop-color="#9f1ef3"/>
      <stop offset=".2" stop-color="#bb1fd6"/>
      <stop offset=".6" stop-color="#dd22b3"/>
      <stop offset=".8" stop-color="#f3239d"/>
      <stop offset="1" stop-color="#fb2496"/>
    </linearGradient>
    <linearGradient id="linear-gradient-2" x1="6.7" y1="113" x2="451.7" y2="113" gradientTransform="translate(0 518) scale(1 -1)" gradientUnits="userSpaceOnUse">
      <stop offset="0" stop-color="#641ee3"/>
      <stop offset=".3" stop-color="#691cde"/>
      <stop offset=".6" stop-color="#7a18d3"/>
      <stop offset="1" stop-color="#9512c2"/>
    </linearGradient>
  </defs>
  <path class="cls-1" d="M375.8,206v74.5c0,9.8-3.4,12.1-11.9,7.2-8.9-5.1-17.2-11.3-25.3-17.7-10.3-8.2-19.9-17.2-27.1-28.5-7.4-11.6-12.1-24.1-12.2-37.9-.3-39.5-1.1-79,0-118.5,1-35,20.2-58.7,52-71.8,29.1-12,60.5-4.4,83.1,19.1,10.3,10.7,20.7,21.3,31,31.9,1,1.1,2.1,2.2,3.2,3.2,5.1,4.6,7.4,4.7,12.3,0,11.3-11.1,22.4-22.4,33.5-33.7,12.1-12.4,25.8-21.9,43.4-24.6,18.1-2.8,35.1.6,50.9,9.5,23.9,13.5,38.4,33.7,42.8,61,.4,2.6.4,5.3.4,8,0,37,.2,74,0,111,0,20.6-8.1,38.5-22.5,52.7-11.4,11.3-24.4,21.1-37,31.1-3,2.4-7,3.7-10.8,5-3.3,1.1-6,0-6.4-4-.3-3-.8-5.9-.8-8.9v-142.5c0-1.2.3-2.4,0-3.5-.7-2.2-1.7-4.3-2.6-6.5-1.8,1-4,1.6-5.4,2.9-11.5,11.3-22.9,22.9-34.3,34.3-16.4,16.4-32.7,32.8-49.1,49.2-6.3,6.2-9.1,6.3-15.4,0-19.9-20.3-39.7-40.9-59.7-61.2-7.8-8-15.9-15.7-24-23.3-1.2-1.1-3.6-2.3-4.6-1.8-1.5.7-2.4,2.8-3.1,4.5-.4,1-.2,2.3-.2,3.5v76h0l-.2-.2Z"/>
  <g>
    <path class="cls-2" d="M897.1,393.4c2.1-3.7,3.4-6.4,5.1-8.8,4.4-6.2,12.7-8.3,19.6-5.3,3.4,1.5,5.6,7.2,4.8,12.2-1.1,6.4-3.3,8.5-8.7,9.1-4.1.5-8.3.8-12.1,2.2-5.8,2.3-9,7.1-9.1,13.6v37.9c0,7.9-3.2,11.2-10.6,11.3-8.1,0-11.9-3.5-11.9-11.3v-64.9c0-7.9,3.4-11.2,11.2-11.2s11.1,3.2,11.3,11.1c0,1,0,1.9.3,4h.1Z"/>
    <path class="cls-2" d="M799.7,431c.4,6.6,3.8,10.9,8.8,13.8,7.2,4.1,14.9,4.3,22.7,1.8,3.9-1.3,7.7-3,11.5-4.6,4.8-1.9,8.8-1.1,11.1,2.5,2.2,3.4,1.4,8.6-2.2,11.7-5.8,5.1-12.6,7.9-20.2,9.1-18.2,3-34.7-.3-46.7-15.4-11.7-14.8-12.9-31.5-5-48.3,7.6-16.2,21.4-23.5,39.1-23.4,21.4,0,37.1,11.8,41.2,31.2.8,4,.8,8.3.4,12.4-.6,5.5-3.7,8.9-9.5,9.1-15.8.5-31.6.4-47.4.5-1.1,0-2.2-.2-3.9-.3h.1ZM800.2,415.8h39.6c.5-10.8-8.1-17.4-21.9-17.1-10.7.2-18.6,7.8-17.6,17.1h0Z"/>
    <path class="cls-2" d="M716.7,410.3c9.5-8.8,18.3-17.1,27.2-25.3,4.6-4.2,9.5-7.7,16.5-6,3.7.9,6.5,2.1,7.7,6,1.2,4-.8,6.6-3.6,9.1-8.8,7.9-17.5,15.8-26.7,24.1,6.7,7.6,13.2,14.9,19.6,22.2,3.9,4.4,7.9,8.6,11.6,13.1,3.9,4.7,2.7,8.9-3.1,11.1-7.9,3.1-15.6.7-21.8-6.5-8-9.4-15.9-18.8-23.9-28.2-.8-1-1.8-1.9-3.2-3.4-.2,2.1-.4,3.5-.4,4.9v24c0,6.9-3.5,10.1-10.7,10.3-7.8.2-12.7-3.5-12.7-10.2v-101.4c0-7.3,4.3-10.6,12.2-10.5,7.5,0,11.1,3.5,11.1,11v55.8h.2Z"/>
    <path class="cls-2" d="M653.7,454.9c-10.2,11.4-22.1,13.8-35.8,9.9-13.8-4-21.5-16.4-19.6-31.7,1.5-12.2,11.7-20.9,25.3-21.9,10.7-.8,20.9.4,30,7,2-13.8-9.5-24.3-23.5-22-5,.8-10,2.5-14.7,4.3-4.3,1.6-6.6,0-8.1-3.8-2.9-8.1,0-13.8,8.2-15.9,11.4-2.9,23-3.8,34.6-1.4,14.3,3,25.2,15.7,25.5,30.6.4,14.7.3,29.3.3,44s-2.3,11.2-8.9,11.8c-8.7.7-11.8-1.6-13.4-10.8h.1ZM637.6,425.9c-6.3-.4-14.2,1.8-17.2,7.7-2.8,5.2.4,11.6,5.7,13.7,6.6,2.9,14.6,2,20.9-1.3,15.3-8.6,3.6-19.5-9.2-20.1h-.2Z"/>
    <path class="cls-2" d="M526.6,411.3c7.2-15.5,13.9-29.9,20.6-44.4,1.3-2.9,2.7-5.7,4.1-8.5,4.8-9.2,9.1-11.4,19.4-10.2,5.5.7,8.5,4.3,9,10.7,2,26.7,4.1,53.4,6.1,80.1.4,5.1.9,10.3,1.1,15.4.3,7-1.8,9.6-8.7,11-7.7,1.6-13.4-1.8-14.2-9.6-1.3-11.4-1.9-22.8-2.8-34.3-.7-8.9-1.3-17.9-3-27-1.8,3.8-3.7,7.5-5.5,11.3-4.7,10.1-9.4,20.1-14.2,30.2-2.4,5.1-5.5,8.7-12,8.8s-9.7-3.6-12.1-8.6c-6.5-13.1-12.8-26.2-19.2-39.4-.3-.7-.8-1.4-1.5-2.8-.5,1.3-.9,1.9-1,2.6-.7,15.8-1.4,31.6-2.1,47.4-.2,4.5-.6,9-1,13.4-.5,5.1-4.2,6.8-8.5,7.8-10.3,2.4-16.4-3.3-15.4-13.6,1.2-11.7,1.6-23.6,2.5-35.3,1.3-18.9,2.6-37.8,4.1-56.7.4-5,2.3-9.4,7.8-11.1,6.8-2,14.3-.4,17.7,4.8,3.4,5.3,6.2,11,8.9,16.6,6.1,12.6,11.9,25.2,17.9,37.8.4.9.9,1.7,1.9,3.6h0Z"/>
  </g>
  <path class="cls-3" d="M396.8,386.9c7.3-6.6,15-9.4,23.9-9,15.6.7,28.8,11.9,29.9,27.4,1.2,16.9,1,33.9,1.1,50.9,0,6.2-4.4,9.6-11,9.6s-11.4-3.1-11.6-9.5c-.3-10.5-.1-21-.2-31.5,0-4,0-8-.5-12-1.3-11.6-10.6-17.1-21.6-13.2-8,2.9-10,5.7-10,14.2v40.5c0,7.6-3.2,11.1-10.2,11.3-8.4.3-12.3-2.7-13-10.3-.3-2.8-.1-5.7-.1-8.5v-84.5c0-2.5,0-5,.2-7.5.6-9.9,8.8-14.8,18-10.4,3.8,1.8,5.2,5.4,5.2,9.5v33ZM287.5,429.8c6.6,37.2,46.5,43.3,70.2,31.4,2.3-1.1,4.5-4.3,4.9-6.9,1.5-9-4.5-13.5-13.2-11.1-5.8,1.6-12,3.8-17.8,3.3-13.4-1.1-22.1-11-20.9-26.8.9-11.3,9.3-20.1,20.6-21.2,7.8-.7,14.6,2.5,21.7,4.5,5,1.4,7.9,0,9.9-4.8,2.4-5.8.6-10.9-5.3-14.3-8.3-4.8-17.3-6.1-26.8-5.9-24.8.5-43.4,19.1-43.3,43.7,0,2.7-.4,5.4,0,8h0ZM238.3,404.8c0,11.8-.2,23.6,0,35.5.2,9.8,2.9,18.7,12.4,23.3,9.2,4.4,19,4.5,28.6,1.3,4.4-1.4,6.3-5.8,5.3-11-.9-4.8-3.6-6.9-8.8-6.8-2.2,0-4.3,0-6.5,0-5.8,0-8.6-2.7-8.6-8.4v-36c0-1.3.3-2.5.5-4,5.6,0,10.7.2,15.8,0,1.9,0,5.1-1.4,5.3-2.5.8-4,1.3-8.5.4-12.4-.9-4.2-5.2-4.5-9-4.4h-13c0-5.6.3-10.5-.1-15.3-.2-2.3-1.1-5.1-2.8-6.5-4.1-3.5-9.3-3.1-14.1-1.5-4.8,1.6-5.4,5.9-5.5,10.2v12.7c-14.1,1.3-16.2,2.8-16,11.1.1,7.1,1.7,8.1,16.1,9.1v5.6h0ZM192.1,417.2c-8.6-5.8-18.1-6.8-28.2-6-11.8.9-20.8,7.4-24,17.7-4,12.9.5,26.7,10.8,33,12.5,7.7,29.7,6.1,39.2-3.5,1.1-1.1,2.3-2.2,3.7-3.5.3.9.6,1.4.6,1.8.7,7.3,3.3,9.3,11.8,9.1,6.9-.2,9.8-3,9.8-9.7,0-14.7.3-29.3,0-44-.4-13.5-5.7-24.8-18.9-30.3-15-6.2-30.3-4.9-45.2.4-6.4,2.3-7.5,13.9-2,18.3,1,.8,3.1.8,4.4.5,3.8-1,7.5-2.8,11.3-3.7,15.2-3.8,29.4,2.4,28.2,20.2-.5,0-1.1,0-1.4-.2h-.1ZM192.3,432.5c4.8,7-3.4,13.6-9.9,15-5.5,1.5-12.2,1-16.7-1.3-6.7-3-8.9-10.5-2.7-15.5,7.4-6.3,23.2-6.2,29.2,1.6h0v.2ZM66.1,409.2c-5.4-11.4-10.7-22.8-16.2-34.2-3.5-7.2-6.9-14.4-10.9-21.2s-10-6.6-17.8-5.2c-6,1.1-7,6.8-7.8,12.1,0,1,0,2,0,3-1.1,14.9-2.2,29.8-3.3,44.8-1.2,15.6-2.6,31.2-3.4,46.8-.1,2.7,1.5,6.5,3.5,8.1,4.7,3.6,10.2,3.3,15.6.8,4.8-2.2,4.9-6.7,5.1-11,.8-15,1.4-29.9,2.2-44.9.2-4.4.8-8.8,1.3-14.4,1.4,2.6,2.3,4.2,3,5.7,6.1,12.5,12.2,25.1,18.4,37.6,2.4,4.9,5.8,8.1,12,7.9,6-.2,9-3.4,11.3-8.2,5.6-11.8,11.2-23.7,16.9-35.5,1-2,2-4,2.9-5.9,1.1.9,1.3,1.7,1.3,2.4,1.3,18.9,2.7,37.8,4,56.7.7,9.1,6.2,13.1,15.2,11,6.7-1.6,8.6-3.8,8.3-10.7-.2-6-.8-11.9-1.3-17.9-1.2-14.9-2.4-29.8-3.7-44.7-1-11.7-1.9-23.5-3.1-35.2-.5-5.2-4.3-8-9.4-8.7-8.5-1.1-14.6,1.9-18,9.9-1.2,2.7-2.7,5.3-3.9,8.1-6.9,14.7-13.7,29.4-20.7,44.5-1-.9-1.3-1.1-1.5-1.4v-.3Z"/>
</svg>