<?xml version="1.0" encoding="UTF-8"?>
<svg id="Layer_1" data-name="Layer 1" xmlns="http://www.w3.org/2000/svg" version="1.1" viewBox="0 0 24 24">
  <defs>
    <style>
      .cls-1 {
        fill: #8720eb;
        stroke-width: 0px;
      }
    </style>
  </defs>
  <path class="cls-1" d="M12,13.4l-4.9,4.9c-.2.2-.4.3-.7.3s-.5,0-.7-.3-.3-.4-.3-.7,0-.5.3-.7l4.9-4.9-4.9-4.9c-.2-.2-.3-.4-.3-.7s0-.5.3-.7.4-.3.7-.3.5,0,.7.3l4.9,4.9,4.9-4.9c.2-.2.4-.3.7-.3s.5,0,.7.3.3.4.3.7,0,.5-.3.7l-4.9,4.9,4.9,4.9c.2.2.3.4.3.7s0,.5-.3.7-.4.3-.7.3-.5,0-.7-.3l-4.9-4.9Z"/>
</svg>