<?xml version="1.0" encoding="UTF-8"?>
<svg id="Layer_1" data-name="Layer 1" xmlns="http://www.w3.org/2000/svg" version="1.1" viewBox="0 0 24 24">
  <defs>
    <style>
      .cls-1 {
        fill: #e3e3e3;
        stroke-width: 0px;
      }
    </style>
  </defs>
  <path class="cls-1" d="M15.3,15.5h-5.5c-.3,0-.5,0-.7-.3-.2-.2-.3-.4-.3-.7v-7c0-.3,0-.5.3-.7.2-.2.4-.3.7-.3h3.5l3,3v5c0,.3,0,.5-.3.7s-.4.3-.7.3ZM12.8,10v-2.5h-3v7h5.5v-4.5h-2.5ZM7.8,17.5c-.3,0-.5,0-.7-.3-.2-.2-.3-.4-.3-.7v-7h1v7h5.5v1h-5.5ZM9.8,7.5v2.5-2.5,7-7Z"/>
</svg>