<?xml version="1.0" encoding="UTF-8"?>
<svg id="Layer_2" data-name="Layer 2" xmlns="http://www.w3.org/2000/svg" version="1.1" viewBox="0 0 24 24">
  <defs>
    <style>
      .cls-1 {
        fill: #e3e3e3;
        stroke-width: 0px;
      }
    </style>
  </defs>
  <path class="cls-1" d="M4,21h11v2H4c-.5,0-1-.2-1.4-.6s-.6-.9-.6-1.4V7h2v14ZM19,16.3v.7h-11V3h6v5h5v.9h2v-1.9L15,1h-7c-.5,0-1,.2-1.4.6s-.6.9-.6,1.4v14c0,.5.2,1,.6,1.4s.9.6,1.4.6h11c.5,0,1-.2,1.4-.6s.6-.9.6-1.4v-.7h-2ZM13.3,14.3c.2,0,.3,0,.3-.3s0-.3-.3-.3h-1.8v-3.6c0-.2,0-.3-.3-.3s-.3,0-.3.3v3.9c0,.2,0,.3.3.3h2.1ZM16.2,14.3c.4,0,.8-.1,1-.3.2-.2.3-.5.3-1v-.8c0-.4-.1-.8-.3-1-.2-.2-.5-.3-1-.3h-.5c-.4,0-.8.1-1,.3s-.3.5-.3,1v.8c0,.4.1.8.3,1,.2.2.5.3,1,.3h.5ZM14.9,12.3c0-.2,0-.3,0-.4,0-.1.1-.2.2-.2s.3,0,.4,0h.5c.3,0,.5,0,.6.2.1.1.2.3.2.6v.8c0,.3,0,.5-.2.6-.1.1-.3.2-.6.2h-.5c-.3,0-.5,0-.6-.2-.1-.1-.2-.3-.2-.6v-.8ZM20.6,15.6c.3,0,.6,0,.7-.2s.2-.4.2-.7v-3.4c0-.2,0-.3-.3-.3s-.3,0-.3.3h0c0,0-.2-.2-.3-.2-.1,0-.3,0-.4,0h-.5c-.4,0-.8.1-1,.3-.2.2-.3.5-.3,1v.8c0,.4.1.8.3,1,.2.2.5.3,1,.3h.2c.2,0,.4,0,.6-.1.2,0,.3-.2.4-.3v.8c0,.2,0,.3,0,.3,0,0-.2,0-.3,0h-1.2c-.1,0-.2,0-.2,0,0,0,0,0-.1,0,0,0,0-.2,0-.2,0,0,0,0-.2,0s-.2,0-.2,0c0,0,0,.1,0,.2,0,.2.1.4.3.5s.4.2.6.2h1.2ZM19.2,13.6c-.1-.1-.2-.3-.2-.6v-.8c0-.3,0-.5.2-.6.1,0,.3-.1.6-.1h.5c.2,0,.4,0,.5,0s.2.2.2.4v1.3c0,.2,0,.3-.3.3-.2,0-.4.1-.7.1h-.2c-.3,0-.5,0-.6-.2Z"/>
</svg>