<?xml version="1.0" encoding="UTF-8"?>
<svg id="Layer_1" data-name="Layer 1" xmlns="http://www.w3.org/2000/svg" version="1.1" viewBox="0 0 24 24">
  <defs>
    <style>
      .cls-1 {
        fill: #8720eb;
        stroke-width: 0px;
      }
    </style>
  </defs>
  <path class="cls-1" d="M8,19.4l-2.3,2.3c-.2.2-.4.3-.7.3s-.5-.1-.7-.3c-.2-.2-.3-.4-.3-.7,0-.3,0-.5.3-.7l2.3-2.3h-1.3c-.3,0-.5,0-.7-.3-.2-.2-.3-.4-.3-.7s0-.5.3-.7.4-.3.7-.3h3.7c.3,0,.5,0,.7.3s.3.4.3.7v3.7c0,.3,0,.5-.3.7s-.4.3-.7.3-.5,0-.7-.3-.3-.4-.3-.7v-1.2ZM5,14c-.3,0-.5,0-.7-.3s-.3-.4-.3-.7V4c0-.6.2-1,.6-1.4s.9-.6,1.4-.6h8l6,6v12c0,.6-.2,1-.6,1.4s-.9.6-1.4.6h-5c-.3,0-.5,0-.7-.3s-.3-.4-.3-.7,0-.5.3-.7.4-.3.7-.3h5v-11h-4c-.3,0-.5,0-.7-.3s-.3-.4-.3-.7V4h-7v9c0,.3,0,.5-.3.7s-.4.3-.7.3Z"/>
</svg>