<?xml version="1.0" encoding="UTF-8"?>
<svg id="Layer_1" data-name="Layer 1" xmlns="http://www.w3.org/2000/svg" version="1.1" viewBox="0 0 24 24">
  <defs>
    <style>
      .cls-1 {
        fill: #8720eb;
        stroke-width: 0px;
      }
    </style>
  </defs>
  <path class="cls-1" d="M6,22c-.8,0-1.5-.3-2.1-.9-.6-.6-.9-1.3-.9-2.1v-3h3V2l1.5,1.5,1.5-1.5,1.5,1.5,1.5-1.5,1.5,1.5,1.5-1.5,1.5,1.5,1.5-1.5,1.5,1.5,1.5-1.5v17c0,.8-.3,1.5-.9,2.1-.6.6-1.3.9-2.1.9H6ZM18,20c.3,0,.5,0,.7-.3s.3-.4.3-.7V5h-11v11h9v3c0,.3,0,.5.3.7s.4.3.7.3ZM9,9v-2h6v2h-6ZM9,12v-2h6v2h-6ZM17,9c-.3,0-.5,0-.7-.3s-.3-.4-.3-.7,0-.5.3-.7.4-.3.7-.3.5,0,.7.3.3.4.3.7,0,.5-.3.7-.4.3-.7.3ZM17,12c-.3,0-.5,0-.7-.3s-.3-.4-.3-.7,0-.5.3-.7.4-.3.7-.3.5,0,.7.3.3.4.3.7,0,.5-.3.7-.4.3-.7.3ZM6,20h9v-2H5v1c0,.3,0,.5.3.7s.4.3.7.3ZM5,20v-2,2Z"/>
</svg>