<?xml version="1.0" encoding="UTF-8"?>
<svg id="Layer_1" data-name="Layer 1" xmlns="http://www.w3.org/2000/svg" version="1.1" viewBox="0 0 24 24">
  <defs>
    <style>
      .cls-1 {
        fill: #8720eb;
        fill-rule: evenodd;
      }

      .cls-1, .cls-2 {
        stroke-width: 0px;
      }

      .cls-2 {
        fill: #e3e3e3;
      }

      .cls-3 {
        display: none;
      }
    </style>
  </defs>
  <g id="Layer_1-2" data-name="Layer 1" class="cls-3">
    <path class="cls-2" d="M19.7,20.4l.7-.7-1.9-1.9v-2.8h-1v3.2s2.2,2.2,2.2,2.2ZM5,21c-.6,0-1-.2-1.4-.6s-.6-.9-.6-1.4V5c0-.6.2-1,.6-1.4.4-.4.9-.6,1.4-.6h14c.6,0,1,.2,1.4.6s.6.9.6,1.4v6.7c-.3-.2-.6-.3-1-.4s-.7-.2-1-.2v-6.1H5v14h6.1c0,.4.1.7.2,1.1s.2.7.4,1h-6.7ZM5,18v1V5v6.1h0v6.9ZM7,17h4.1c0-.4.1-.7.2-1s.2-.7.4-1h-4.7v2ZM7,13h6.1c.5-.5,1.1-.9,1.8-1.3s1.4-.6,2.1-.7H7v2ZM7,9h10v-2H7v2ZM18,23c-1.4,0-2.6-.5-3.5-1.5s-1.5-2.2-1.5-3.5.5-2.6,1.5-3.5,2.2-1.5,3.5-1.5,2.6.5,3.5,1.5,1.5,2.2,1.5,3.5-.5,2.6-1.5,3.5-2.2,1.5-3.5,1.5Z"/>
  </g>
  <g id="Layer_2" data-name="Layer 2">
    <path class="cls-1" d="M7.1,11.8h10.6v-3.2h-3.4c-.4,0-.8-.2-1.1-.4-.2-.2-.4-.7-.4-1v-3.4H4.2v17.4h13.3v-1.8H7.1c-.7,0-1.2-.6-1.2-1.2v-5.1c0-.7.6-1.2,1.2-1.2h0ZM7.7,13.7h1.2v3h1.9v1h-3.1v-3.9h0ZM11.1,15.7c0-.6.2-1.1.5-1.5.4-.4.9-.5,1.5-.5s1.2.2,1.5.5.5.8.5,1.5,0,.8-.2,1.1-.4.5-.7.7-.7.2-1.1.2-.8,0-1.1-.2c-.3-.1-.5-.4-.7-.7-.2-.3-.3-.7-.3-1.1h.1ZM12.3,15.7c0,.4,0,.7.2.9.1.2.3.3.6.3s.5,0,.6-.3c.1-.2.2-.5.2-.9s0-.6-.2-.8-.4-.3-.6-.3-.4,0-.6.3c-.1.2-.2.5-.2.9h0ZM17.7,16.2v-.8h1.9v1.7c-.4.2-.7.4-1,.5-.3,0-.6.1-1,.1s-.8,0-1.1-.2c-.3-.2-.5-.4-.7-.7-.2-.3-.2-.7-.2-1.1s0-.8.3-1.1c.2-.3.4-.6.8-.7.3-.1.6-.2,1.1-.2s.8,0,1,.1.4.2.5.4.2.4.3.6l-1.2.2c0-.1-.1-.3-.2-.3s-.3-.1-.4-.1c-.3,0-.5,0-.6.3s-.2.5-.2.9,0,.7.2.9.4.3.7.3h.4c.1,0,.3-.1.4-.2v-.4h-.8l-.2-.2ZM18.9,11.8h1.6c.7,0,1.2.6,1.2,1.2v5.1c0,.7-.6,1.2-1.2,1.2h-1.6v2.2c0,.3-.1.5-.3.7-.2.2-.4.3-.7.3H3.9c-.3,0-.5-.1-.7-.3s-.3-.4-.3-.7V3.5c0-.3,0-.5.3-.7s.4-.3.7-.3h9.6c.1,0,.2,0,.3,0h0l4.9,5s.1.2.1.3h0v3.9h0ZM14,7.1v-3.1l3.5,3.5h-3.1c-.1,0-.2,0-.3,0,0,0-.1-.2-.1-.3h0Z"/>
  </g>
</svg>