<?xml version="1.0" encoding="UTF-8"?>
<svg id="Layer_1" data-name="Layer 1" xmlns="http://www.w3.org/2000/svg" version="1.1" viewBox="0 0 24 24">
  <defs>
    <style>
      .cls-1 {
        fill: #eaeaea;
        stroke-width: 0px;
      }
    </style>
  </defs>
  <path class="cls-1" d="M4,20v-2h2.8l-.4-.4c-.9-.8-1.5-1.6-1.8-2.6s-.5-2-.5-3c0-1.9.6-3.5,1.7-4.9s2.6-2.4,4.3-2.9v2.1c-1.2.4-2.2,1.2-2.9,2.2-.7,1-1.1,2.2-1.1,3.5s0,1.5.4,2.2.7,1.4,1.3,2l.3.3v-2.5h2v6h-6.1ZM14,19.7v-2.1c1.2-.4,2.2-1.2,2.9-2.2s1.1-2.2,1.1-3.5-.1-1.5-.4-2.2-.7-1.4-1.3-2l-.3-.3v2.5h-2v-5.9h6v2h-2.8l.4.4c.8.8,1.4,1.7,1.8,2.7s.6,1.9.6,2.9c0,1.9-.6,3.5-1.7,4.9s-2.6,2.4-4.3,2.9h0Z"/>
</svg>